<?xml version="1.0" standalone="no"?>
<!DOCTYPE svg PUBLIC "-//W3C//DTD SVG 20010904//EN"
 "http://www.w3.org/TR/2001/REC-SVG-20010904/DTD/svg10.dtd">
<svg version="1.0" xmlns="http://www.w3.org/2000/svg"
 width="500.000000pt" height="500.000000pt" viewBox="0 0 500.000000 500.000000"
 preserveAspectRatio="xMidYMid meet">

<g transform="translate(0.000000,500.000000) scale(0.100000,-0.100000)"
fill="#000000" stroke="none">
<path d="M3590 4513 c-35 -54 -136 -214 -226 -355 l-164 -258 0 -101 0 -102
223 7 c122 4 231 7 242 7 11 1 14 3 8 6 -9 3 -13 31 -13 88 0 97 4 95 -129 95
-74 0 -83 2 -79 18 3 9 51 91 107 181 l102 165 0 135 c0 74 5 143 10 153 5 10
6 18 2 17 -20 -3 -27 2 -13 11 11 7 12 12 4 20 -8 8 -28 -16 -74 -87z m67 22
c0 -8 -4 -12 -9 -9 -5 3 -6 10 -3 15 9 13 12 11 12 -6z"/>
<path d="M1090 2125 l0 -1525 290 0 290 0 2 1047 3 1048 25 3 c23 2 46 -32
272 -400 137 -222 427 -693 646 -1048 l398 -645 307 -3 307 -2 0 1525 0 1525
-285 0 -285 0 0 -979 0 -979 -27 -5 c-16 -3 -33 0 -39 6 -10 11 -346 550
-1013 1624 l-206 333 -342 0 -343 0 0 -1525z"/>
</g>
</svg>
